<svg id="visual" viewBox="0 0 450 900" width="450" height="900" xmlns="http://www.w3.org/2000/svg" xmlns:xlink="http://www.w3.org/1999/xlink" version="1.1"><rect x="0" y="0" width="450" height="900" fill="#193251"></rect><defs><linearGradient id="grad1_0" x1="0%" y1="0%" x2="100%" y2="100%"><stop offset="30%" stop-color="#193251" stop-opacity="1"></stop><stop offset="70%" stop-color="#193251" stop-opacity="1"></stop></linearGradient></defs><defs><linearGradient id="grad2_0" x1="0%" y1="0%" x2="100%" y2="100%"><stop offset="30%" stop-color="#193251" stop-opacity="1"></stop><stop offset="70%" stop-color="#193251" stop-opacity="1"></stop></linearGradient></defs><g transform="translate(450, 0)"><path d="M0 180C-16.7 172.7 -33.3 165.5 -52.5 161.7C-71.8 157.9 -93.6 157.6 -105.8 145.6C-118 133.7 -120.7 110 -127.8 92.9C-134.9 75.7 -146.5 65.1 -156 50.7C-165.4 36.3 -172.7 18.1 -180 0L0 0Z" fill="#fdb762"></path></g><g transform="translate(0, 900)"><path d="M0 -180C19.5 -179.3 39 -178.5 55.6 -171.2C72.2 -163.9 85.9 -150 100.5 -138.3C115.2 -126.7 130.8 -117.4 143.2 -104C155.6 -90.7 164.7 -73.3 170.2 -55.3C175.8 -37.3 177.9 -18.7 180 0L0 0Z" fill="#fdb762"></path></g></svg>