<?xml version="1.0" encoding="utf-8"?>
<!-- Uploaded to: SVG Repo, www.svgrepo.com, Generator: SVG Repo Mixer Tools -->
<svg width="800px" height="800px" viewBox="0 -56 1136 1136" class="icon"  version="1.1" xmlns="http://www.w3.org/2000/svg"><path d="M376.123077 562.806154s-176.049231-82.707692-143.950769-253.833846c0 0 31.901538-186.486154 203.618461-180.775385 171.716923 5.513846 213.858462 124.849231 216.615385 200.467692 2.953846 75.618462-8.664615 159.901538-143.950769 234.141539 0 0 221.144615 53.366154 270.572307 280.418461H108.504615s17.329231-190.621538 267.618462-280.418461z" fill="#C9D787" /><path d="M797.144615 857.796923H92.356923l1.378462-15.950769c0.787692-7.876923 19.692308-186.289231 248.516923-281.796923-50.412308-32.886154-150.449231-116.972308-124.849231-253.833846 0.393846-1.772308 36.036923-198.695385 218.387692-192.787693 164.233846 5.316923 227.052308 114.412308 230.793846 214.449231 2.953846 77.587692-10.633846 158.72-123.273846 230.793846 22.646154 8.664615 55.138462 23.433846 89.6 46.867693 58.289231 39.581538 133.316923 112.246154 159.901539 234.338461l4.332307 17.92zM126.030769 828.652308h634.486154C706.166154 628.184615 507.076923 577.575385 504.910769 576.984615l-36.627692-8.861538 32.886154-18.116923c130.953846-71.876923 139.027692-151.630769 136.467692-220.750769-1.575385-42.141538-21.070769-180.578462-202.633846-186.486154-65.772308-2.166154-117.366154 25.403077-153.403077 81.526154-27.569231 42.929231-35.249231 86.646154-35.446154 87.04-29.538462 157.932308 128.984615 234.929231 135.876923 238.08l31.901539 15.163077-33.083077 11.815384c-196.726154 70.892308-244.184615 205.981538-254.818462 252.258462z" fill="#493B4E" /><path d="M745.353846 652.603077s72.664615 96.689231 76.996923 190.621538h184.713846s-13.193846-91.569231-159.310769-163.24923c0 0 73.452308-28.750769 85.070769-135.286154 0 0-2.953846-115.003077-125.046153-123.273846 0 0-114.806154 1.378462-119.335385 123.273846 0.196923 0-5.710769 78.375385 56.910769 107.913846z" fill="#C9D787" /><path d="M1024 857.796923H808.369231l-0.590769-13.981538c-3.741538-79.950769-60.849231-163.84-72.27077-179.79077-65.772308-33.673846-62.030769-113.624615-61.636923-120.32 4.923077-134.104615 132.332308-137.255385 133.710769-137.255384h1.181539c133.907692 9.255385 138.633846 136.270769 138.633846 137.649231v0.984615l-0.196923 0.984615c-8.073846 74.633846-44.504615 114.018462-69.710769 132.923077 129.575385 72.073846 143.36 158.326154 143.950769 162.067693l2.56 16.738461z m-188.061538-29.144615h151.433846c-11.421538-28.16-46.08-86.646154-145.92-135.483077l-29.932308-14.572308 30.916923-12.012308c2.56-0.984615 64.984615-27.372308 75.815385-122.092307-0.590769-10.633846-8.467692-100.824615-110.67077-108.307693-8.664615 0.196923-100.627692 5.907692-104.36923 109.292308v0.590769c-0.196923 2.756923-4.135385 68.923077 48.443077 93.538462l3.347692 1.575384 2.166154 2.953847c2.756923 3.544615 68.529231 91.963077 78.769231 184.516923z" fill="#493B4E" /></svg>