<?xml version="1.0" encoding="utf-8"?>
<!-- Uploaded to: SVG Repo, www.svgrepo.com, Generator: SVG Repo Mixer Tools -->
<svg width="800px" height="800px" viewBox="0 0 1024 1024" class="icon"  version="1.1" xmlns="http://www.w3.org/2000/svg"><path d="M852.8 901.6h-688c-66.4 0-120-53.6-120-120V368.8c0-66.4 53.6-120 120-120h688c66.4 0 120 53.6 120 120v413.6c0 65.6-53.6 119.2-120 119.2z" fill="#D6AB7F" /><path d="M146.4 687.2h730.4c35.2 0 68-11.2 95.2-31.2V368c0-66.4-53.6-120-120-120h-688c-66.4 0-120 53.6-120 120v283.2c29.6 23.2 64.8 36 102.4 36z" fill="#0D1014" /><path d="M852.8 909.6h-688c-70.4 0-128-57.6-128-128V368.8c0-70.4 57.6-128 128-128h688c70.4 0 128 57.6 128 128v413.6c0 69.6-57.6 127.2-128 127.2z m-688-652.8c-61.6 0-112 50.4-112 112v413.6c0 61.6 50.4 112 112 112h688c61.6 0 112-50.4 112-112V368.8c0-61.6-50.4-112-112-112h-688z" fill="#6A576D" /><path d="M508.8 729.6c-22.4 0-40-17.6-40-40v-45.6h80v45.6c0 21.6-17.6 40-40 40z" fill="#FFFFFF" /><path d="M508.8 737.6c-26.4 0-48-21.6-48-48V640c0-4.8 3.2-8 8-8h80c4.8 0 8 3.2 8 8v49.6c0 26.4-21.6 48-48 48z m-32-90.4v41.6c0 17.6 14.4 32 32 32s32-14.4 32-32v-41.6h-64z" fill="#6A576D" /><path d="M247.2 214.4H148.8c-62.4 0-113.6 50.4-114.4 113.6L32 523.2c-0.8 64 50.4 116 114.4 116h730.4c64 0 115.2-52 114.4-116l-2.4-196c-0.8-62.4-52-113.6-114.4-113.6H247.2" fill="#938993" /><path d="M877.6 647.2H146.4c-32.8 0-64-12.8-87.2-36.8C36 587.2 24 556 24 523.2l2.4-196c0.8-67.2 56-120.8 122.4-120.8h726.4c67.2 0 121.6 54.4 122.4 120.8l2.4 196c0 32.8-12 64-35.2 88-23.2 23.2-54.4 36-87.2 36zM148.8 222.4c-58.4 0-105.6 47.2-106.4 105.6L40 523.2c0 28.8 10.4 56 30.4 76 20 20.8 47.2 32 76 32h730.4c28.8 0 56-11.2 76-32s31.2-47.2 30.4-76l-2.4-196c-0.8-58.4-48.8-105.6-106.4-105.6H148.8z" fill="#6A576D" /><path d="M509.6 505.6h-1.6c-37.6 0-68 31.2-68 67.2v70.4h137.6v-70.4c0.8-36-29.6-67.2-68-67.2z" fill="#EC7BB0" /><path d="M577.6 647.2H440c-2.4 0-4-0.8-5.6-2.4-1.6-1.6-2.4-3.2-2.4-5.6l0.8-66.4c0-41.6 34.4-75.2 76-75.2h1.6c41.6 0 76 33.6 76 75.2l-0.8 66.4c0 4.8-3.2 8-8 8z m-129.6-16h121.6v-58.4c0-32.8-27.2-59.2-60-59.2h-1.6c-32.8 0-60 26.4-60 59.2v58.4zM680.8 222.4c-4.8 0-8-3.2-8-8 0-26.4-6.4-45.6-19.2-58.4-25.6-25.6-76.8-25.6-136-25.6h-17.6c-59.2 0-110.4 0-136 25.6-12.8 12.8-19.2 32-19.2 58.4 0 4.8-3.2 8-8 8s-8-3.2-8-8c0-31.2 8-53.6 24-69.6 30.4-30.4 84-30.4 147.2-30.4h17.6c62.4 0 116.8 0 147.2 30.4 16 16 24 38.4 24 69.6 0 4-4 8-8 8z" fill="#6A576D" /></svg>